<svg xmlns="http://www.w3.org/2000/svg" viewBox="0 0 1200 630" role="img" aria-label="Crew Count Clash preview">
  <defs>
    <linearGradient id="sky" x1="0" x2="0" y1="0" y2="1">
      <stop offset="0" stop-color="#aee8ff"/>
      <stop offset="1" stop-color="#54bdd8"/>
    </linearGradient>
    <linearGradient id="track" x1="0" x2="0" y1="0" y2="1">
      <stop offset="0" stop-color="#8ee3d0"/>
      <stop offset="1" stop-color="#67d7e5"/>
    </linearGradient>
    <linearGradient id="crew" x1="0" x2="0" y1="0" y2="1">
      <stop offset="0" stop-color="#36c9f6"/>
      <stop offset="1" stop-color="#1686b4"/>
    </linearGradient>
  </defs>
  <rect width="1200" height="630" fill="url(#sky)"/>
  <path d="M600 80 1070 630H130Z" fill="url(#track)"/>
  <path d="M514 126h172l92 504H422Z" fill="#64dfdf"/>
  <rect x="350" y="142" width="196" height="116" rx="18" fill="#21c55d"/>
  <rect x="654" y="142" width="196" height="116" rx="18" fill="#ef476f"/>
  <text x="448" y="213" text-anchor="middle" font-family="Arial, sans-serif" font-size="64" font-weight="900" fill="#ffffff">x3</text>
  <text x="752" y="213" text-anchor="middle" font-family="Arial, sans-serif" font-size="58" font-weight="900" fill="#ffffff">-32</text>
  <g transform="translate(505 320)">
    <g fill="url(#crew)" stroke="#13799f" stroke-width="5">
      <path d="M0 56c0-42 22-66 62-66s62 24 62 66v50c0 28-18 46-47 46H47c-29 0-47-18-47-46z"/>
      <rect x="34" y="30" width="68" height="30" rx="15" fill="#bdefff" stroke="none"/>
      <rect x="-16" y="86" width="30" height="76" rx="15"/>
      <rect x="110" y="86" width="30" height="76" rx="15"/>
    </g>
    <g transform="translate(-110 46) scale(.74)" fill="url(#crew)" stroke="#13799f" stroke-width="5">
      <path d="M0 56c0-42 22-66 62-66s62 24 62 66v50c0 28-18 46-47 46H47c-29 0-47-18-47-46z"/>
      <rect x="34" y="30" width="68" height="30" rx="15" fill="#bdefff" stroke="none"/>
    </g>
    <g transform="translate(156 46) scale(.74)" fill="url(#crew)" stroke="#13799f" stroke-width="5">
      <path d="M0 56c0-42 22-66 62-66s62 24 62 66v50c0 28-18 46-47 46H47c-29 0-47-18-47-46z"/>
      <rect x="34" y="30" width="68" height="30" rx="15" fill="#bdefff" stroke="none"/>
    </g>
  </g>
  <rect x="80" y="76" width="410" height="138" rx="18" fill="rgba(255,255,255,.86)"/>
  <text x="110" y="134" font-family="Arial, sans-serif" font-size="32" font-weight="900" fill="#146ef5">3D CROWD RUNNER</text>
  <text x="110" y="190" font-family="Arial, sans-serif" font-size="56" font-weight="900" fill="#102033">Crew Count Clash</text>
  <circle cx="956" cy="126" r="36" fill="#ffd166"/>
  <circle cx="1008" cy="178" r="28" fill="#58f29a"/>
  <circle cx="918" cy="198" r="24" fill="#7c3aed"/>
</svg>
